<svg width="163" height="14" viewBox="0 0 163 14" fill="none" xmlns="http://www.w3.org/2000/svg">
<path d="M3.04 13H0.24L6.384 0.999999H9.04L15.232 13H12.384L11.008 10.12H4.416L3.04 13ZM5.376 8.12H10.048L7.712 3.224L5.376 8.12ZM16.6044 13V0.999999H19.1644L27.0364 9.736V0.999999H29.5964V13H27.0364L19.1644 4.264V13H16.6044ZM31.3588 3.08V0.999999H43.3588V3.08H38.6388V13H36.0788V3.08H31.3588ZM45.12 13V0.999999H47.68V5.912H55.232V0.999999H57.792V13H55.232V7.992H47.68V13H45.12ZM66.7463 13.288C62.3943 13.288 59.6263 10.808 59.6263 7C59.6263 3.208 62.3943 0.728 66.7463 0.728C71.0983 0.728 73.8663 3.208 73.8663 7C73.8663 10.808 71.0983 13.288 66.7463 13.288ZM62.1863 7C62.1863 9.544 63.9783 11.176 66.7463 11.176C69.5143 11.176 71.3063 9.544 71.3063 7C71.3063 4.456 69.5143 2.808 66.7463 2.808C63.9783 2.808 62.1863 4.456 62.1863 7ZM75.7138 13V0.999999H78.2738L86.1458 9.736V0.999999H88.7058V13H86.1458L78.2738 4.264V13H75.7138ZM92.8361 0.999999L96.7561 6.472L100.628 0.999999H103.588L98.0041 8.776V13H95.4441V8.776L89.8281 0.999999H92.8361ZM108.156 13V10.76L116.668 3.08H108.476V0.999999H119.788V3.224L111.324 10.936L119.836 10.92V13H108.156ZM128.309 13.288C123.957 13.288 121.189 10.808 121.189 7C121.189 3.208 123.957 0.728 128.309 0.728C132.661 0.728 135.429 3.208 135.429 7C135.429 10.808 132.661 13.288 128.309 13.288ZM123.749 7C123.749 9.544 125.541 11.176 128.309 11.176C131.077 11.176 132.869 9.544 132.869 7C132.869 4.456 131.077 2.808 128.309 2.808C125.541 2.808 123.749 4.456 123.749 7ZM137.116 4.024C137.132 1.832 138.972 0.712 142.828 0.712C144.972 0.712 146.812 1.064 148.108 1.432L148.252 3.672C146.812 3.176 144.988 2.76 142.876 2.76C140.556 2.76 139.596 3.224 139.596 4.072C139.596 6.584 148.828 4.488 148.828 9.576C148.828 11.96 146.86 13.288 143.212 13.288C141.02 13.288 138.94 12.776 137.26 11.976L137.1 9.528C139.196 10.52 141.02 11.128 143.228 11.128C145.324 11.128 146.3 10.552 146.3 9.624C146.3 6.856 137.068 9.08 137.116 4.024ZM150.398 4.024C150.414 1.832 152.254 0.712 156.11 0.712C158.253 0.712 160.094 1.064 161.39 1.432L161.534 3.672C160.094 3.176 158.27 2.76 156.158 2.76C153.838 2.76 152.878 3.224 152.878 4.072C152.878 6.584 162.11 4.488 162.11 9.576C162.11 11.96 160.142 13.288 156.494 13.288C154.302 13.288 152.222 12.776 150.542 11.976L150.382 9.528C152.478 10.52 154.302 11.128 156.51 11.128C158.606 11.128 159.582 10.552 159.582 9.624C159.582 6.856 150.35 9.08 150.398 4.024Z" fill="#D7D2D0"/>
</svg>
