<?xml version="1.0" encoding="UTF-8" standalone="no"?>
<!DOCTYPE svg PUBLIC "-//W3C//DTD SVG 1.1//EN" "http://www.w3.org/Graphics/SVG/1.1/DTD/svg11.dtd">
<svg width="100%" height="100%" viewBox="0 0 197 19" version="1.1" xmlns="http://www.w3.org/2000/svg" xmlns:xlink="http://www.w3.org/1999/xlink" xml:space="preserve" xmlns:serif="http://www.serif.com/" style="fill-rule:evenodd;clip-rule:evenodd;stroke-linejoin:round;stroke-miterlimit:2;">
    <g transform="matrix(1.85539,0,0,1.85539,-3.69181,12.1373)">
        <text x="2.097px" y="3.079px" style="font-family:'Arial-BoldMT', 'Arial', sans-serif;font-weight:700;font-size:12.564px;fill:rgb(254,251,249);">ANTHONY<tspan x="63.992px 67.483px " y="3.079px 3.079px ">  </tspan> ZOSS</text>
    </g>
    <g transform="matrix(1,0,0,1,16,0)">
        <path d="M106.029,9.024L107.59,9.024L107.59,7.098L108.517,7.098L110.005,9.024L111.834,9.024L110.176,6.976C111.029,6.78 111.542,6.171 111.542,5.39C111.542,4.439 110.81,3.707 109.517,3.707L106.029,3.707L106.029,9.024ZM102.2,6.488C102.2,10.073 105.127,13 108.712,13C112.273,13 115.2,10.073 115.2,6.488C115.2,2.927 112.273,0 108.712,0C105.127,0 102.2,2.927 102.2,6.488ZM103.908,6.488C103.908,3.683 105.883,1.61 108.712,1.61C111.517,1.61 113.493,3.683 113.493,6.488C113.493,9.317 111.517,11.39 108.712,11.39C105.883,11.39 103.908,9.317 103.908,6.488ZM107.59,5.854L107.59,4.976L109.273,4.976C109.883,4.976 109.981,5.049 109.981,5.39C109.981,5.756 109.883,5.854 109.322,5.854L107.59,5.854Z" style="fill:rgb(254,251,249);fill-rule:nonzero;"/>
    </g>
</svg>
